<svg xmlns="http://www.w3.org/2000/svg" width="46" height="46" viewBox="0 0 46 46"><defs><style>      .cls-1 {        fill-rule: evenodd;      }    </style></defs><path id="_" data-name="&#xE686;" class="cls-1" d="M271,791.7h46v46H271v-46h0ZM314.305,835V794.393H273.7V835h40.61Zm-32.524-15.633a3.89,3.89,0,0,1-1.347-.629,4.564,4.564,0,0,1-1.079-1.078,5.739,5.739,0,0,1-.718-1.347,4.31,4.31,0,0,1-.27-1.528,4.686,4.686,0,0,1,.27-1.572,4.833,4.833,0,0,1,.718-1.348,5.1,5.1,0,0,1,1.079-1.033,3.963,3.963,0,0,1,1.347-.629v-7.726h2.785v7.726a4,4,0,0,1,1.348.629,5.17,5.17,0,0,1,1.078,1.033,4.888,4.888,0,0,1,.719,1.348,4.685,4.685,0,0,1,.269,1.572,4.31,4.31,0,0,1-.269,1.528,5.817,5.817,0,0,1-.719,1.347,4.616,4.616,0,0,1-1.078,1.078,3.92,3.92,0,0,1-1.348.629v7.547h-2.785v-7.547h0Zm1.438-6.738a2.074,2.074,0,0,0-.854.18,2.061,2.061,0,0,0-1.123,1.123,2.056,2.056,0,0,0-.179.853,1.763,1.763,0,0,0,.179.809,3.31,3.31,0,0,0,.449.674,1.493,1.493,0,0,0,.674.449,2.675,2.675,0,0,0,.854.135,2.416,2.416,0,0,0,.763-0.135,1.482,1.482,0,0,0,.674-0.449,3.27,3.27,0,0,0,.449-0.674,1.906,1.906,0,0,0,0-1.617,3.352,3.352,0,0,0-.449-0.674,2.034,2.034,0,0,0-1.437-.674h0Zm9.433,0.988a4.386,4.386,0,0,1-1.392-.629,4.261,4.261,0,0,1-1.123-1.078,5.742,5.742,0,0,1-.719-1.347,4.31,4.31,0,0,1-.27-1.528,4.686,4.686,0,0,1,.27-1.572,4.836,4.836,0,0,1,.719-1.348,4.715,4.715,0,0,1,1.123-1.033,4.476,4.476,0,0,1,1.392-.629v-1.976h2.7v1.976a4.5,4.5,0,0,1,1.392.629,4.734,4.734,0,0,1,1.123,1.033,4.888,4.888,0,0,1,.719,1.348,4.686,4.686,0,0,1,.27,1.572,4.31,4.31,0,0,1-.27,1.528,5.817,5.817,0,0,1-.719,1.347,4.276,4.276,0,0,1-1.123,1.078,4.405,4.405,0,0,1-1.392.629v13.3h-2.7v-13.3h0ZM294,806.881a1.779,1.779,0,0,0-.809.18,3.3,3.3,0,0,0-.673.449,1.864,1.864,0,0,0-.495.674,2.072,2.072,0,0,0-.179.853,1.776,1.776,0,0,0,.179.809,2.558,2.558,0,0,0,.495.674,1.884,1.884,0,0,0,.673.449,2.492,2.492,0,0,0,1.618,0,1.91,1.91,0,0,0,.673-0.449,2.6,2.6,0,0,0,.495-0.674,1.915,1.915,0,0,0,0-1.617,2.758,2.758,0,0,0-1.168-1.168,1.785,1.785,0,0,0-.809-0.18h0Zm10.781,21.113a4.687,4.687,0,0,1-1.842-.359,4.862,4.862,0,0,1-2.56-2.561,4.921,4.921,0,0,1-.359-1.931,4.318,4.318,0,0,1,.269-1.528,5.822,5.822,0,0,1,.719-1.347,3.905,3.905,0,0,1,1.078-1.033,6.93,6.93,0,0,1,1.348-.674V802.479h2.785v16.082a7.036,7.036,0,0,1,1.347.674,3.951,3.951,0,0,1,1.079,1.033,5.857,5.857,0,0,1,.718,1.347,4.318,4.318,0,0,1,.27,1.528,4.939,4.939,0,0,1-.36,1.931,4.862,4.862,0,0,1-2.56,2.561,4.933,4.933,0,0,1-1.932.359h0Zm0-6.918a1.892,1.892,0,0,0-.763.18,2.23,2.23,0,0,0-.674.449,2.2,2.2,0,0,0-.449.674,1.871,1.871,0,0,0-.18.764,2.053,2.053,0,0,0,.18.853,2.061,2.061,0,0,0,1.123,1.123,1.859,1.859,0,0,0,.763.18,2.065,2.065,0,0,0,.854-0.18,2.2,2.2,0,0,0,.674-0.449,2.242,2.242,0,0,0,.449-0.674,2.085,2.085,0,0,0,.18-0.853,1.9,1.9,0,0,0-.18-0.764,2.061,2.061,0,0,0-1.123-1.123,2.1,2.1,0,0,0-.854-0.18h0Z" transform="translate(-271 -791.688)"></path></svg>