<svg xmlns="http://www.w3.org/2000/svg" width="46" height="40.594" viewBox="0 0 46 40.594"><defs><style>      .cls-1 {        fill-rule: evenodd;      }    </style></defs><path id="_" data-name="&#xE6BF;" class="cls-1" d="M761,792.088v10.871h-2.7V832.7H717.7V802.959H715V792.088h46ZM755.609,830V802.959H720.391V830h35.218Zm2.7-29.738v-5.481H717.7v5.481h40.61Zm-27.043,16.172a5.635,5.635,0,0,1-2.157-.405,4.811,4.811,0,0,1-1.707-1.167,6.613,6.613,0,0,1-1.168-1.708,4.836,4.836,0,0,1-.449-2.111,4.932,4.932,0,0,1,.449-2.066,6.364,6.364,0,0,1,1.168-1.752,4.827,4.827,0,0,1,1.707-1.168,5.635,5.635,0,0,1,2.157-.4h13.566a5.4,5.4,0,0,1,2.067.4,5.371,5.371,0,0,1,2.919,2.92,5.4,5.4,0,0,1,.405,2.066,5.294,5.294,0,0,1-.405,2.111,5.417,5.417,0,0,1-1.168,1.708,5.28,5.28,0,0,1-1.751,1.167,5.4,5.4,0,0,1-2.067.405H731.262Zm0-8.086a2.407,2.407,0,0,0-1.078.224,4.01,4.01,0,0,0-.854.584,2.089,2.089,0,0,0-.584.854,3.054,3.054,0,0,0,0,2.066,2.069,2.069,0,0,0,.584.854,3.868,3.868,0,0,0,.854.584,2.38,2.38,0,0,0,1.078.224h13.566a2.464,2.464,0,0,0,1.033-.224,2.869,2.869,0,0,0,.854-0.584,2.9,2.9,0,0,0,.584-0.854,2.494,2.494,0,0,0,0-2.066,2.8,2.8,0,0,0-1.438-1.438,2.5,2.5,0,0,0-1.033-.224H731.262Z" transform="translate(-715 -792.094)"></path></svg>