<svg xmlns="http://www.w3.org/2000/svg" width="46" height="46" viewBox="0 0 46 46"><defs><style>      .cls-1 {        fill-rule: evenodd;      }    </style></defs><path id="_" data-name="&#xE6B9;" class="cls-1" d="M1184,791.7a22.86,22.86,0,0,1,8.94,1.8,22.05,22.05,0,0,1,7.32,4.942,24.7,24.7,0,0,1,4.9,7.322,23.708,23.708,0,0,1,0,17.879,24.689,24.689,0,0,1-4.9,7.322,22.005,22.005,0,0,1-7.32,4.942,22.861,22.861,0,0,1-8.94,1.8,22.4,22.4,0,0,1-8.94-1.8,23.177,23.177,0,0,1-12.26-12.264,22.086,22.086,0,0,1,0-17.879,23.177,23.177,0,0,1,12.26-12.264,22.4,22.4,0,0,1,8.94-1.8h0Zm12.13,21.652h8.08a17.909,17.909,0,0,0-.44-3.01q-0.36-1.482-.81-2.83a12.856,12.856,0,0,0-1.22-2.605c-0.51-.839-1.03-1.647-1.57-2.426a11.727,11.727,0,0,0-1.62,2.47c-0.42.869-.82,1.752-1.21,2.651a13,13,0,0,0-.85,2.785q-0.27,1.439-.45,2.965h0.09Zm8.17,2.695h-8.26q0.18,1.529.45,2.965a12.966,12.966,0,0,0,.85,2.785c0.39,0.9.79,1.783,1.21,2.651a11.626,11.626,0,0,0,1.62,2.47c0.54-.777,1.06-1.586,1.57-2.426a12.831,12.831,0,0,0,1.22-2.605q0.45-1.347.81-2.83a17.894,17.894,0,0,0,.44-3.01h0.09Zm-6.01-15.633a13.783,13.783,0,0,0-2.7-2.381,24.353,24.353,0,0,0-3.14-1.8,18.441,18.441,0,0,0-3.46-1.213,19.492,19.492,0,0,0-3.64-.539l-0.09,18.867h8.17a13.688,13.688,0,0,1,.45-3.5c0.3-1.137.65-2.26,1.04-3.369a17.467,17.467,0,0,1,1.48-3.19,34.34,34.34,0,0,1,1.89-2.875h0Zm-15.64-5.929a16.489,16.489,0,0,0-3.73.584,25.972,25.972,0,0,0-3.46,1.257,16.459,16.459,0,0,0-3.09,1.8,30.568,30.568,0,0,0-2.74,2.291,15.837,15.837,0,0,1,1.97,2.875,34.754,34.754,0,0,1,1.48,3.19,19.873,19.873,0,0,1,1.04,3.369,32.822,32.822,0,0,1,.54,3.5h7.9l0.09-18.867h0Zm-18.86,18.867h8.08a12.165,12.165,0,0,0-.36-2.965,27.377,27.377,0,0,0-.85-2.785,20.27,20.27,0,0,0-1.21-2.651,28.921,28.921,0,0,0-1.53-2.47,13.936,13.936,0,0,0-1.66,2.426,25.911,25.911,0,0,0-1.22,2.605,17.2,17.2,0,0,0-.85,2.83,29.965,29.965,0,0,0-.49,3.01h0.09Zm8.17,2.695h-8.26a29.919,29.919,0,0,0,.49,3.01,17.2,17.2,0,0,0,.85,2.83,25.808,25.808,0,0,0,1.22,2.605,13.824,13.824,0,0,0,1.66,2.426,28.309,28.309,0,0,0,1.53-2.47,20.21,20.21,0,0,0,1.21-2.651,27.223,27.223,0,0,0,.85-2.785,12.147,12.147,0,0,0,.36-2.965h0.09Zm-2.33,12.938a30.071,30.071,0,0,0,2.74,2.291,16.351,16.351,0,0,0,3.09,1.8,25.559,25.559,0,0,0,3.46,1.257,16.434,16.434,0,0,0,3.73.584l-0.09-18.867h-7.9a32.744,32.744,0,0,1-.54,3.5,19.762,19.762,0,0,1-1.04,3.369,34.388,34.388,0,0,1-1.48,3.19,15.767,15.767,0,0,1-1.97,2.875h0Zm15.72,5.929a19.328,19.328,0,0,0,3.64-.539,18.3,18.3,0,0,0,3.46-1.213,24.005,24.005,0,0,0,3.14-1.8,13.718,13.718,0,0,0,2.7-2.381,34.015,34.015,0,0,1-1.89-2.875,17.374,17.374,0,0,1-1.48-3.19c-0.39-1.107-.74-2.23-1.04-3.369a13.677,13.677,0,0,1-.45-3.5h-8.17l0.09,18.867h0Z" transform="translate(-1160.91 -791.688)"></path></svg>