<svg xmlns="http://www.w3.org/2000/svg" width="40.62" height="46" viewBox="0 0 40.62 46"><defs><style>      .cls-1 {        fill-rule: evenodd;      }    </style></defs><path id="_" data-name="&#xE682;" class="cls-1" d="M1645.3,817.393a19.369,19.369,0,0,0-1.21-6.783,21.531,21.531,0,0,0-3.32-5.93,20.239,20.239,0,0,0-5.03-4.492,19.247,19.247,0,0,0-6.34-2.561l-0.63,2.606a16.179,16.179,0,0,1,5.57,2.246,18.123,18.123,0,0,1,4.36,3.908,17.9,17.9,0,0,1,2.88,5.121,17.52,17.52,0,0,1-.36,12.758,17.752,17.752,0,0,1-9.39,9.344,17.452,17.452,0,0,1-13.66,0,17.752,17.752,0,0,1-9.39-9.344,17.52,17.52,0,0,1-.36-12.758,17.78,17.78,0,0,1,7.28-9.029,16.808,16.808,0,0,1,5.53-2.246l-0.63-2.7a20.8,20.8,0,0,0-6.34,2.651,20.239,20.239,0,0,0-5.03,4.492,21.277,21.277,0,0,0-3.32,5.93,19.937,19.937,0,0,0,.4,14.689,20.642,20.642,0,0,0,10.78,10.781,20.144,20.144,0,0,0,15.82,0,20.642,20.642,0,0,0,10.78-10.781,19.406,19.406,0,0,0,1.61-7.906h0Zm-18.95-25.7V818.74h-2.7V791.7h2.7Z" transform="translate(-1604.69 -791.688)"></path></svg>